Coordinates
version=1
nRows=32
nColumns=38
inDegrees=no

Units are S.I. units (second, meters, Newtons, ...)
If the header above contains a line with 'inDegrees', this indicates whether rotational values are in degrees (yes) or radians (no).

endheader
time	pelvis_tilt	pelvis_list	pelvis_rotation	pelvis_tx	pelvis_ty	pelvis_tz	hip_flexion_r	hip_adduction_r	hip_rotation_r	knee_angle_r	ankle_angle_r	subtalar_angle_r	mtp_angle_r	hip_flexion_l	hip_adduction_l	hip_rotation_l	knee_angle_l	ankle_angle_l	subtalar_angle_l	mtp_angle_l	lumbar_extension	lumbar_bending	lumbar_rotation	arm_flex_r	arm_add_r	arm_rot_r	elbow_flex_r	pro_sup_r	wrist_flex_r	wrist_dev_r	arm_flex_l	arm_add_l	arm_rot_l	elbow_flex_l	pro_sup_l	wrist_flex_l	wrist_dev_l
3.655	-0.0932016	-0.0627434	0.0550447	1.31894	1.00348	-0.496753	0.293301	0.0705157	-0.115065	0.351704	0.195	-0.0293535	-0.031554	0.423754	-0.216224	-0.0788894	1.28454	-0.0907882	0.0263902	-0.0226747	-0.0849094	0.0925636	0.111945	-0.225519	-0.132951	-0.295023	0.788939	1.32277	0.000420814	0.0022927	-0.0791834	-0.0539634	0.0125342	0.610148	1.33879	0.00321411	0.00163884
3.66	-0.0910489	-0.0603533	0.0545659	1.32462	1.0045	-0.496576	0.280775	0.0695745	-0.112197	0.344755	0.196906	-0.028064	-0.031554	0.436372	-0.212361	-0.0801256	1.28665	-0.080757	0.0249649	-0.0226747	-0.0881806	0.0895772	0.115264	-0.220344	-0.135447	-0.295134	0.798771	1.32361	0.000420814	0.0022927	-0.0817725	-0.0534412	0.0113239	0.601879	1.33523	0.00321411	0.00163884
3.665	-0.0888525	-0.0578461	0.0540635	1.33027	1.00551	-0.496415	0.268116	0.0684631	-0.109321	0.337614	0.198728	-0.0267544	-0.031554	0.448513	-0.20836	-0.0818927	1.28739	-0.0708679	0.0234714	-0.0226747	-0.0915499	0.0864664	0.118483	-0.215173	-0.137949	-0.295251	0.808994	1.32453	0.000420814	0.0022927	-0.084535	-0.0530647	0.010166	0.59423	1.33164	0.00321411	0.00163884
3.67	-0.0866539	-0.0552516	0.0535175	1.33592	1.00649	-0.496265	0.255388	0.067213	-0.106431	0.330305	0.200467	-0.0254258	-0.031554	0.460224	-0.204276	-0.0841848	1.28682	-0.061188	0.0219127	-0.0226747	-0.0949709	0.0832587	0.121631	-0.210021	-0.140457	-0.295386	0.819609	1.32554	0.000420814	0.0022927	-0.0874593	-0.0528309	0.0091089	0.587181	1.32806	0.00321411	0.00163884
3.675	-0.0844955	-0.0526002	0.0529083	1.34154	1.00743	-0.496124	0.242659	0.065857	-0.103523	0.322852	0.202123	-0.0240852	-0.031554	0.471556	-0.200164	-0.0869949	1.28497	-0.0517723	0.0202948	-0.0226747	-0.0983965	0.0799823	0.124733	-0.204899	-0.142971	-0.295546	0.830612	1.32666	0.000420814	0.0022927	-0.090532	-0.0527367	0.00820143	0.58071	1.32453	0.00321411	0.00163884
3.68	-0.0824174	-0.0499227	0.0522179	1.34715	1.00833	-0.49599	0.229994	0.0644287	-0.100586	0.315279	0.203696	-0.0227424	-0.031554	0.482555	-0.196081	-0.0903148	1.28189	-0.0426654	0.0186259	-0.0226747	-0.101782	0.0766661	0.127816	-0.199816	-0.145491	-0.295741	0.841995	1.32792	0.000420814	0.0022927	-0.0937386	-0.0527782	0.00748923	0.574791	1.3211	0.00321411	0.00163884
3.685	-0.0804554	-0.0472489	0.0514314	1.35274	1.00917	-0.495858	0.21745	0.062961	-0.0976092	0.30761	0.205188	-0.0214109	-0.031554	0.493263	-0.19208	-0.0941339	1.27762	-0.0339024	0.0169167	-0.0226747	-0.105088	0.0733388	0.130904	-0.194778	-0.148016	-0.295978	0.853746	1.32933	0.000420814	0.0022927	-0.0970635	-0.0529508	0.00701665	0.569394	1.31781	0.00321411	0.00163884
3.69	-0.0786397	-0.0446074	0.0505372	1.35831	1.00996	-0.495727	0.205079	0.0614854	-0.0945812	0.299866	0.206601	-0.0201062	-0.031554	0.503712	-0.188209	-0.0984396	1.27218	-0.0255105	0.0151791	-0.0226747	-0.10828	0.0700283	0.134015	-0.189792	-0.150547	-0.296261	0.865846	1.33088	0.000420814	0.0022927	-0.10049	-0.0532496	0.00682521	0.564488	1.31469	0.00321411	0.00163884
3.695	-0.0769955	-0.0420243	0.0495277	1.36387	1.01069	-0.495596	0.192923	0.0600303	-0.0914916	0.292067	0.207941	-0.0188426	-0.031554	0.513929	-0.184512	-0.103216	1.26562	-0.0175104	0.0134256	-0.0226747	-0.11133	0.0667613	0.137164	-0.184858	-0.153084	-0.296595	0.878275	1.33257	0.000420814	0.0022927	-0.104003	-0.0536687	0.00694864	0.56004	1.31178	0.00321411	0.00163884
3.7	-0.0755442	-0.039523	0.0483983	1.3694	1.01136	-0.495462	0.181018	0.0586207	-0.0883304	0.284233	0.209213	-0.0176349	-0.031554	0.52393	-0.181026	-0.108447	1.25793	-0.00991746	0.0116693	-0.0226747	-0.114214	0.0635621	0.140364	-0.179979	-0.155626	-0.29698	0.891007	1.33441	0.000420814	0.0022927	-0.107584	-0.0542015	0.00741443	0.556014	1.30911	0.00321411	0.00163884
3.705	-0.0743046	-0.0371242	0.0471474	1.37492	1.01195	-0.495326	0.169396	0.0572785	-0.0850878	0.27638	0.210427	-0.0164983	-0.031554	0.533728	-0.17778	-0.114109	1.24915	-0.00274309	0.00992271	-0.0226747	-0.116911	0.0604527	0.14362	-0.175153	-0.158172	-0.297414	0.904016	1.33635	0.000420814	0.0022927	-0.11122	-0.0548409	0.0082428	0.552379	1.30673	0.00321411	0.00163884
3.71	-0.073295	-0.0348459	0.0457755	1.38041	1.01247	-0.495187	0.158087	0.056022	-0.0817556	0.268526	0.211591	-0.0154462	-0.031554	0.543334	-0.174797	-0.120181	1.23927	0.00400359	0.00819821	-0.0226747	-0.119399	0.0574526	0.146938	-0.170378	-0.160722	-0.297896	0.91727	1.33838	0.000420814	0.0022927	-0.114894	-0.0555786	0.00944293	0.549099	1.30467	0.00321411	0.00163884
3.715	-0.0725331	-0.0327034	0.0442849	1.38589	1.01292	-0.495044	0.14712	0.0548673	-0.0783253	0.260689	0.212714	-0.0144923	-0.031554	0.552754	-0.17209	-0.126636	1.22828	0.0103148	0.00650755	-0.0226747	-0.121659	0.054579	0.150319	-0.16565	-0.163275	-0.298419	0.930738	1.34048	0.000420814	0.0022927	-0.118595	-0.056406	0.0110166	0.546142	1.30298	0.00321411	0.00163884
3.72	-0.0720355	-0.0307101	0.0426784	1.39135	1.01328	-0.494897	0.136522	0.0538284	-0.0747884	0.252886	0.213805	-0.0136513	-0.031554	0.561991	-0.169669	-0.133446	1.21619	0.0161829	0.00486205	-0.0226747	-0.123671	0.0518473	0.153765	-0.160966	-0.165827	-0.298977	0.944387	1.3426	0.000420814	0.0022927	-0.12231	-0.0573143	0.0129594	0.543479	1.30168	0.00321411	0.00163884
3.725	-0.0718149	-0.0288769	0.0409602	1.39679	1.01357	-0.494747	0.126312	0.052917	-0.0711381	0.245131	0.214871	-0.0129341	-0.031554	0.571041	-0.167537	-0.140581	1.20298	0.0215995	0.00327231	-0.0226747	-0.125418	0.04927	0.157273	-0.156318	-0.168375	-0.299564	0.958183	1.34474	0.000420814	0.0022927	-0.12603	-0.0582946	0.0152607	0.541079	1.30078	0.00321411	0.00163884
3.73	-0.0718804	-0.0272132	0.0391358	1.40221	1.01377	-0.494594	0.116506	0.0521442	-0.0673692	0.237439	0.215917	-0.012352	-0.031554	0.579891	-0.165687	-0.148007	1.18863	0.0265545	0.00174823	-0.0226747	-0.126888	0.046859	0.160839	-0.151703	-0.170916	-0.300173	0.972094	1.34686	0.000420814	0.0022927	-0.129747	-0.0593377	0.0179047	0.538916	1.30028	0.00321411	0.00163884
3.735	-0.0722363	-0.0257277	0.0372129	1.40762	1.01389	-0.494437	0.10711	0.0515211	-0.0634793	0.229824	0.216944	-0.0119153	-0.031554	0.588522	-0.164111	-0.155685	1.17311	0.0310355	0.000298962	-0.0226747	-0.128072	0.0446256	0.164457	-0.147114	-0.173444	-0.300795	0.986085	1.34894	0.000420814	0.0022927	-0.133453	-0.0604346	0.0208701	0.536966	1.30015	0.00321411	0.00163884
3.74	-0.0728791	-0.0244284	0.0352028	1.41301	1.01393	-0.494279	0.0981209	0.0510582	-0.0594719	0.222295	0.217953	-0.0116292	-0.031554	0.596903	-0.162789	-0.163571	1.15639	0.0350276	-0.00106713	-0.0226747	-0.12897	0.0425808	0.168116	-0.142545	-0.175952	-0.301422	1.00013	1.35099	0.000420814	0.0022927	-0.137146	-0.0615759	0.0241285	0.535206	1.30038	0.00321411	0.00163884
3.745	-0.0737973	-0.0233234	0.0331211	1.41839	1.01389	-0.49412	0.0895235	0.0507672	-0.0553565	0.214861	0.21894	-0.0114967	-0.031554	0.604992	-0.161699	-0.171616	1.13844	0.0385133	-0.00234214	-0.0226747	-0.129586	0.0407365	0.171799	-0.137991	-0.178434	-0.302045	1.01418	1.353	0.000420814	0.0022927	-0.140824	-0.062752	0.0276447	0.533617	1.30094	0.00321411	0.00163884
3.75	-0.0749694	-0.022421	0.030989	1.42377	1.01377	-0.493961	0.0812875	0.0506609	-0.0511505	0.207528	0.219898	-0.0115171	-0.031554	0.612734	-0.160809	-0.179759	1.11922	0.041473	-0.00351836	-0.0226747	-0.129939	0.0391053	0.175486	-0.133447	-0.180882	-0.302655	1.02823	1.35497	0.000420814	0.0022927	-0.144486	-0.0639529	0.0313753	0.532181	1.30181	0.00321411	0.00163884
3.755	-0.0763626	-0.0217294	0.0288341	1.42914	1.01357	-0.493806	0.0733663	0.0507512	-0.0468819	0.200299	0.220821	-0.0116814	-0.031554	0.620063	-0.160077	-0.187931	1.09871	0.043886	-0.00458849	-0.0226747	-0.130055	0.0377003	0.179146	-0.128907	-0.183285	-0.303247	1.04224	1.35696	0.000420814	0.0022927	-0.148136	-0.0651685	0.0352694	0.530883	1.30298	0.00321411	0.00163884
3.76	-0.0779335	-0.0212557	0.0266904	1.43451	1.01331	-0.493656	0.0656983	0.0510494	-0.0425888	0.193172	0.221699	-0.0119743	-0.031554	0.626902	-0.159456	-0.196052	1.07686	0.0457315	-0.0055461	-0.0226747	-0.129974	0.0365337	0.182745	-0.124368	-0.185634	-0.30381	1.05618	1.35897	0.000420814	0.0022927	-0.151778	-0.0663884	0.0392719	0.529713	1.30444	0.00321411	0.00163884
3.765	-0.0796305	-0.0210049	0.0245971	1.43989	1.01298	-0.493515	0.0582105	0.0515624	-0.0383195	0.186147	0.222525	-0.012373	-0.031554	0.633166	-0.158886	-0.20403	1.05366	0.0469897	-0.0063871	-0.0226747	-0.129741	0.0356151	0.186241	-0.119824	-0.18792	-0.304335	1.07002	1.36103	0.000420814	0.0022927	-0.155416	-0.067602	0.0433258	0.528658	1.30619	0.00321411	0.00163884
3.77	-0.0813972	-0.0209764	0.0225969	1.44528	1.01259	-0.493386	0.0508246	0.0522892	-0.0341333	0.179223	0.223297	-0.0128415	-0.031554	0.638769	-0.158295	-0.211765	1.02906	0.0476438	-0.00711217	-0.0226747	-0.12941	0.0349486	0.189586	-0.115274	-0.190133	-0.30481	1.08376	1.36316	0.000420814	0.0022927	-0.159058	-0.0687976	0.0473707	0.527712	1.3082	0.00321411	0.00163884
3.775	-0.0831783	-0.0211616	0.0207312	1.45069	1.01215	-0.493275	0.0434668	0.0532164	-0.0300945	0.172405	0.224021	-0.013337	-0.031554	0.643633	-0.1576	-0.21915	1.00307	0.0476811	-0.00772959	-0.0226747	-0.129032	0.0345292	0.192736	-0.110714	-0.192268	-0.305224	1.09735	1.36537	0.000420814	0.0022927	-0.162708	-0.0699616	0.0513483	0.526864	1.31046	0.00321411	0.00163884
3.78	-0.0849272	-0.02154	0.0190353	1.45612	1.01166	-0.493186	0.0360804	0.0543138	-0.0262664	0.165708	0.22471	-0.0138108	-0.031554	0.647691	-0.156704	-0.226074	0.975662	0.0470937	-0.0082588	-0.0226747	-0.128652	0.0343392	0.19565	-0.106142	-0.19432	-0.305559	1.1108	1.36761	0.000420814	0.0022927	-0.166373	-0.0710782	0.0552033	0.526105	1.31293	0.00321411	0.00163884
3.785	-0.086615	-0.0220774	0.0175329	1.46157	1.01114	-0.493124	0.0286391	0.0555308	-0.0227076	0.159162	0.225394	-0.0142068	-0.031554	0.650906	-0.155504	-0.232429	0.946852	0.0458804	-0.00873327	-0.0226747	-0.128295	0.034346	0.1983	-0.101557	-0.196292	-0.305803	1.12408	1.36987	0.000420814	0.0022927	-0.170055	-0.0721272	0.0588821	0.525423	1.31558	0.00321411	0.00163884
3.79	-0.0882418	-0.0227275	0.016228	1.46705	1.01056	-0.493094	0.0211663	0.0568005	-0.0194592	0.152818	0.226117	-0.0144729	-0.031554	0.653282	-0.153893	-0.238113	0.916659	0.0440469	-0.00920006	-0.0226747	-0.127961	0.0345036	0.200675	-0.0969574	-0.198191	-0.30594	1.13718	1.37211	0.000420814	0.0022927	-0.173756	-0.073085	0.0623362	0.524803	1.31837	0.00321411	0.00163884
3.795	-0.089845	-0.0234359	0.0151003	1.47256	1.00995	-0.493098	0.0137456	0.0580451	-0.016538	0.146749	0.226935	-0.0145652	-0.031554	0.654874	-0.151779	-0.243031	0.885122	0.0416072	-0.0097175	-0.0226747	-0.12761	0.0347563	0.202793	-0.0923438	-0.200028	-0.305959	1.1501	1.37429	0.000420814	0.0022927	-0.177472	-0.0739244	0.0655217	0.524225	1.32126	0.00321411	0.00163884
3.8	-0.0915002	-0.0241462	0.0141042	1.47808	1.00928	-0.49314	0.00652115	0.0591839	-0.0139346	0.14105	0.227912	-0.0144516	-0.031554	0.655793	-0.14909	-0.247099	0.852306	0.0385852	-0.01035	-0.0226747	-0.127164	0.0350449	0.204696	-0.0877162	-0.201818	-0.305851	1.16282	1.3764	0.000420814	0.0022927	-0.181199	-0.0746155	0.068398	0.523668	1.32424	0.00321411	0.00163884
3.805	-0.0933125	-0.0248074	0.0131742	1.48362	1.00856	-0.493217	-0.000317863	0.0601449	-0.0116125	0.135827	0.229116	-0.0141195	-0.031554	0.656191	-0.145785	-0.250245	0.818299	0.035017	-0.0111594	-0.0226747	-0.126518	0.0353142	0.206448	-0.0830753	-0.203578	-0.305609	1.17534	1.37843	0.000420814	0.0022927	-0.18493	-0.0751286	0.0709317	0.523109	1.32726	0.00321411	0.00163884
3.81	-0.0953958	-0.0253815	0.0122358	1.48917	1.00777	-0.493327	-0.00657053	0.0608759	-0.00951678	0.131188	0.230603	-0.0135781	-0.031554	0.656242	-0.141862	-0.252395	0.783214	0.0309544	-0.0121947	-0.0226747	-0.125555	0.0355217	0.208125	-0.0784226	-0.205324	-0.305229	1.18765	1.38036	0.000420814	0.0022927	-0.188655	-0.0754372	0.0730991	0.522523	1.33031	0.00321411	0.00163884
